<svg xmlns="http://www.w3.org/2000/svg" viewBox="0 0 56.7 56.7">
	<path
		d="M17.7 26.6v3.5c0 1-.8 1.8-1.8 1.8h-3.5c-1 0-1.8-.8-1.8-1.8v-3.5c0-1 .8-1.8 1.8-1.8h3.5c1 0 1.8.8 1.8 1.8zM15.9 39h-3.5c-1 0-1.8.8-1.8 1.8v3.5c0 1 .8 1.8 1.8 1.8h3.5c1 0 1.8-.8 1.8-1.8v-3.5c0-1-.8-1.8-1.8-1.8zm14.2-14.2h-3.5c-1 0-1.8.8-1.8 1.8v3.5c0 1 .8 1.8 1.8 1.8h3.5c1 0 1.8-.8 1.8-1.8v-3.5c0-1-.8-1.8-1.8-1.8zm0 14.2h-3.5c-1 0-1.8.8-1.8 1.8v3.5c0 1 .8 1.8 1.8 1.8h3.5c1 0 1.8-.8 1.8-1.8v-3.5c0-1-.8-1.8-1.8-1.8zm14.2-14.2h-3.5c-1 0-1.8.8-1.8 1.8v3.5c0 1 .8 1.8 1.8 1.8h3.5c1 0 1.8-.8 1.8-1.8v-3.5c0-1-.8-1.8-1.8-1.8zm0 14.2h-3.5c-1 0-1.8.8-1.8 1.8v3.5c0 1 .8 1.8 1.8 1.8h3.5c1 0 1.8-.8 1.8-1.8v-3.5c0-1-.8-1.8-1.8-1.8zM12.4 10.6h3.5c1 0 1.8-.8 1.8-1.8v-7c0-1-.8-1.8-1.8-1.8h-3.5c-1 0-1.8.8-1.8 1.8v7.1c0 .9.8 1.7 1.8 1.7zm44.3 3.6v35.4c0 3.9-3.2 7.1-7.1 7.1H7.1c-3.9 0-7.1-3.2-7.1-7.1V14.2c0-3.9 3.2-7.1 7.1-7.1h1.8v1.8c0 2 1.6 3.5 3.5 3.5h3.5c2 0 3.5-1.6 3.5-3.5V7.1h17.7v1.8c0 2 1.6 3.5 3.5 3.5h3.5c2 0 3.5-1.6 3.5-3.5V7.1h1.8c4.1 0 7.3 3.2 7.3 7.1zm-3.6 7.1c0-2-1.6-3.5-3.5-3.5H7.1c-2 0-3.5 1.6-3.5 3.5v28.3c0 2 1.6 3.5 3.5 3.5h42.5c2 0 3.5-1.6 3.5-3.5V21.3zM40.7 10.6h3.5c1 0 1.8-.8 1.8-1.8v-7c0-1-.8-1.8-1.8-1.8h-3.5c-1 0-1.8.8-1.8 1.8v7.1c.1.9.9 1.7 1.8 1.7z" />
</svg>