<svg xmlns="http://www.w3.org/2000/svg" viewBox="0 0 56.7 45.4">
    <path
        d="M12.8 14.2c-3.9 0-7.1-3.2-7.1-7.1S8.8 0 12.8 0s7.1 3.2 7.1 7.1-3.2 7.1-7.1 7.1zm32.6 0c-3.9 0-7.1-3.2-7.1-7.1S41.4 0 45.4 0s7.1 3.2 7.1 7.1-3.2 7.1-7.1 7.1zM0 26.5C0 21.2 4.2 17 9.5 17h3.8c1.4 0 2.7.3 4 .9-.1.6-.2 1.3-.2 2 0 3.4 1.5 6.4 3.8 8.5h-19c-1-.1-1.9-.9-1.9-1.9zm35.9 1.8c2.3-2.1 3.8-5.1 3.8-8.5 0-.7-.1-1.3-.2-2 1.2-.6 2.5-.9 4-.9h3.8c5.2 0 9.5 4.2 9.5 9.5 0 1-.9 1.9-1.9 1.9h-19zm1-8.5c0 4.7-3.8 8.5-8.5 8.5s-8.5-3.8-8.5-8.5 3.8-8.5 8.5-8.5 8.5 3.8 8.5 8.5zM11.3 43c0-6.5 5.3-11.8 11.8-11.8h10.4c6.5 0 11.8 5.3 11.8 11.8 0 1.3-1.1 2.4-2.4 2.4H13.7c-1.3 0-2.4-1.1-2.4-2.4z" />
</svg>