<svg xmlns="http://www.w3.org/2000/svg" viewBox="0 0 56.7 38.2">
    <path
        d="M11.332 20.992l-.3.5-10.4 15.6-.6 1 1.2-.1 18.7-1.2h.4s14.9-8.5 25.6-14.8l.2-1.8c.1-.8.1-1.5.1-2.2l-24.6 14.2-1.2 4.2h-.1l-1.1-.3 1.2-4.1-3.6-6.3-5.6-3.3.6-1 5.5 3.2 25.7-14.8-.2-.2c-2-1.9-3.9-2.4-3.9-2.4l-2.4-.6-25.2 14.4zm30.9-17.9c1.1.6 2.6 1.4 4 2.8 2.6 2.5 5.1 6.8 4.9 13 3.3-1.9 5.5-3.2 5.6-3.3-.3-7.1-3.1-12.4-9.1-15.7l-5.4 3.2zm-33.6 24.1c2.8 1.4 4 3.6 4.6 5.5.4 1.4.4 2.6.4 3.2l-11.3.7 6.3-9.4zm9.5-1.8l1.6 2.8 1.6 2.7.3.6.1.2-.1-.2-.3-.5 24.8-14.3c-.3-2.7-1.2-4.6-2.3-6l-.2.1-25.5 14.6z" />
</svg>