<svg viewBox="0 0 17 16">
    <path
        d="M8.6 0c2.3 0 4.2.8 5.7 2.3s2.3 3.4 2.3 5.7c0 1.2-.3 2.3-.8 3.1s-1.3 1.2-2.3 1.2-1.8-.5-2.3-1.5c-.7 1-1.6 1.5-2.9 1.5-1.1 0-2.1-.4-2.9-1.2s-1.2-1.8-1.2-3 .4-2.2 1.2-3 1.7-1.2 2.8-1.2 1.9.4 2.7 1.2h.1v-1h1.5v5.4c0 .4.1.7.3 1s.5.4.9.4c1 0 1.5-1 1.5-3 0-1.8-.6-3.4-1.9-4.6s-2.9-1.8-4.7-1.8-3.4.6-4.6 1.9C2.7 4.6 2.1 6.2 2.1 8s.6 3.4 1.9 4.6c1.3 1.3 2.8 1.9 4.6 1.9 1 0 1.9-.2 2.6-.6l.6 1.4c-1 .4-2 .7-3.2.7-2.3 0-4.2-.8-5.8-2.3C1.3 12.1.5 10.2.5 8s.8-4.1 2.3-5.7C4.4.8 6.3 0 8.6 0M6.7 10c.5.5 1.1.7 1.8.7s1.3-.2 1.8-.7.7-1.1.7-1.9-.2-1.4-.7-1.9-1.1-.8-1.8-.8-1.3.2-1.8.7-.7 1.2-.7 2 .2 1.4.7 1.9" />
</svg>