<svg xmlns="http://www.w3.org/2000/svg" viewBox="0 0 56.7 56.7">
    <path d="M48.1 30.2H8.6c-1 0-1.9-.8-1.9-1.9 0-1 .9-1.9 1.9-1.9h39.5c1 0 1.9.9 1.9 1.9 0 1.1-.8 1.9-1.9 1.9z" />
    <path d="M28.3 50c-1 0-1.9-.9-1.9-1.9V8.6c0-1 .9-1.9 1.9-1.9 1 0 1.9.9 1.9 1.9v39.5c0 1.1-.8 1.9-1.9 1.9z" />
    <g>
        <path
            d="M28.3 56.7C12.7 56.7 0 44 0 28.3 0 12.7 12.7 0 28.3 0 44 0 56.7 12.7 56.7 28.3 56.7 44 44 56.7 28.3 56.7zm0-54.2C14.1 2.5 2.5 14.1 2.5 28.3s11.6 25.9 25.9 25.9 25.9-11.6 25.9-25.9-11.7-25.8-26-25.8z" />
    </g>
</svg>